<svg width="976" height="761" viewBox="0 0 976 761" fill="none" xmlns="http://www.w3.org/2000/svg">
<path d="M292.292 512.083C299.374 489.376 324.52 449.406 387.723 427.746C450.927 406.087 528.94 444.742 567.253 472.658C605.565 500.575 635.501 534.074 648.934 565.011C662.368 595.947 667.602 618.2 660.461 648.252C653.319 678.305 601.46 719.698 573.563 724.246C545.667 728.793 531.506 723.704 499.877 709.069C468.248 694.434 314.292 597.11 300.472 571.158C286.653 545.206 285.21 534.791 292.292 512.083Z" fill="black" stroke="white" stroke-width="11.6644"/>
<path d="M355.232 620.124C355.232 620.124 359.226 575.735 377.534 544.082C395.843 512.428 438.706 480.54 459.154 468.845C479.603 457.15 518.143 443.956 518.143 443.956" stroke="white" stroke-width="11.6644"/>
<path d="M417.454 478.856C413.711 482.855 370.767 465.77 371.767 459.198C372.767 452.626 392.695 451.747 401.257 454.97C409.819 458.193 421.197 474.858 417.454 478.856Z" fill="black" stroke="white" stroke-width="11.6644"/>
<path d="M331.894 460.993C231.741 379.562 157.16 413.22 65.5306 379.562C-42.0801 340.034 4.22276 247.573 140.113 226.473C364.273 191.667 387.298 350.247 568.425 350.247C749.551 350.247 502.366 221.044 611.042 163.5C719.719 105.956 1108.87 379.562 1016.72 2" stroke="white" stroke-width="11.6644"/>
</svg>
