<svg width="63" height="65" viewBox="0 0 63 65" fill="none" xmlns="http://www.w3.org/2000/svg">
<path d="M31.4288 64.5925C48.7863 64.5925 62.8574 50.2311 62.8574 32.5155C62.8574 14.7998 48.7863 0.438477 31.4288 0.438477C14.0713 0.438477 0.000244141 14.7998 0.000244141 32.5155C0.000244141 50.2311 14.0713 64.5925 31.4288 64.5925Z" fill="#848DC7"/>
<path d="M42.398 19.7221H20.4593C17.8628 19.7221 15.7573 21.871 15.7573 24.5211V40.5158C15.7573 43.1659 17.8628 45.3148 20.4593 45.3148H42.398C44.9945 45.3148 47.1 43.1659 47.1 40.5158V24.5149C47.1 21.8648 44.9945 19.7221 42.398 19.7221V19.7221ZM41.7596 22.9173L32.5397 32.3211C31.932 32.9476 30.9376 32.9539 30.3237 32.3274L30.3176 32.3211L21.0977 22.9173H41.7596ZM43.9694 40.5158C43.9694 41.3991 43.2696 42.1134 42.4041 42.1134H20.4593C19.5938 42.1134 18.894 41.3991 18.894 40.5158V25.1727L28.1078 34.5765C29.9431 36.4498 32.9141 36.4498 34.7557 34.5765L43.9694 25.1727V40.5158Z" fill="black" stroke="black" stroke-width="2.33287"/>
</svg>
