<svg width="63" height="65" viewBox="0 0 63 65" fill="none" xmlns="http://www.w3.org/2000/svg">
<path fill-rule="evenodd" clip-rule="evenodd" d="M63.0001 32.5155C63.0001 50.2311 48.929 64.5925 31.5715 64.5925C14.214 64.5925 0.142944 50.2311 0.142944 32.5155C0.142944 14.7998 14.214 0.438477 31.5715 0.438477C48.929 0.438477 63.0001 14.7998 63.0001 32.5155ZM32.6977 24.1191C29.641 25.4168 23.5314 28.1028 14.3694 32.1768C12.8816 32.7806 12.1022 33.3714 12.0313 33.9491C11.9114 34.9253 13.1091 35.3097 14.7402 35.833C14.962 35.9044 15.1919 35.9782 15.4276 36.0562C17.0323 36.5887 19.1909 37.2116 20.313 37.2361C21.3309 37.2586 22.4671 36.8304 23.7213 35.9512C32.2818 30.0536 36.7007 27.0726 36.978 27.0083C37.1739 26.963 37.445 26.906 37.6289 27.0727C37.8124 27.2393 37.7946 27.555 37.775 27.6398C37.6563 28.1559 32.9546 32.6173 30.5215 34.9261C29.7631 35.6457 29.2251 36.1562 29.1151 36.2728C28.8687 36.5342 28.6175 36.7812 28.3763 37.0186C26.8855 38.4853 25.7675 39.5852 28.4381 41.3816C29.7217 42.2447 30.7486 42.9584 31.7732 43.6705C32.892 44.4484 34.008 45.2241 35.4519 46.1902C35.8199 46.4364 36.1711 46.6919 36.5134 46.9408C37.8156 47.8884 38.9855 48.7395 40.4307 48.6037C41.2706 48.5248 42.1381 47.7189 42.5786 45.3153C43.6197 39.6344 45.6662 27.3257 46.1392 22.2535C46.1808 21.8091 46.1287 21.2403 46.0868 20.9907C46.0449 20.741 45.9574 20.3853 45.6395 20.122C45.2629 19.8102 44.6817 19.7444 44.4216 19.749C43.2394 19.7703 41.4259 20.4139 32.6977 24.1191Z" fill="#848DC7"/>
</svg>
